<svg xmlns="http://www.w3.org/2000/svg" viewBox="0 0 100 100" fill="currentColor" role="img" aria-hidden="true"><path d="M50.00,41.50 L52.00,47.25 L58.08,47.37 L53.23,51.05 L55.00,56.88 L50.00,53.40 L45.00,56.88 L46.77,51.05 L41.92,47.37 L48.00,47.25 Z"/><path d="M50.00,31.60 L50.80,33.90 L53.23,33.95 L51.29,35.42 L52.00,37.75 L50.00,36.36 L48.00,37.75 L48.71,35.42 L46.77,33.95 L49.20,33.90 Z"/><path d="M50.00,18.30 L50.63,20.13 L52.57,20.17 L51.03,21.33 L51.59,23.18 L50.00,22.08 L48.41,23.18 L48.97,21.33 L47.43,20.17 L49.37,20.13 Z"/><path d="M50.00,5.00 L50.47,6.35 L51.90,6.38 L50.76,7.25 L51.18,8.62 L50.00,7.80 L48.82,8.62 L49.24,7.25 L48.10,6.38 L49.53,6.35 Z"/><path d="M62.99,39.10 L63.79,41.40 L66.22,41.45 L64.28,42.92 L64.99,45.25 L62.99,43.86 L60.99,45.25 L61.70,42.92 L59.76,41.45 L62.19,41.40 Z"/><path d="M75.11,32.80 L75.75,34.63 L77.68,34.67 L76.14,35.83 L76.70,37.68 L75.11,36.58 L73.53,37.68 L74.09,35.83 L72.55,34.67 L74.48,34.63 Z"/><path d="M87.24,26.50 L87.71,27.85 L89.14,27.88 L88.00,28.75 L88.41,30.12 L87.24,29.30 L86.06,30.12 L86.48,28.75 L85.34,27.88 L86.77,27.85 Z"/><path d="M62.99,54.10 L63.79,56.40 L66.22,56.45 L64.28,57.92 L64.99,60.25 L62.99,58.86 L60.99,60.25 L61.70,57.92 L59.76,56.45 L62.19,56.40 Z"/><path d="M75.11,61.80 L75.75,63.63 L77.68,63.67 L76.14,64.83 L76.70,66.68 L75.11,65.58 L73.53,66.68 L74.09,64.83 L72.55,63.67 L74.48,63.63 Z"/><path d="M87.24,69.50 L87.71,70.85 L89.14,70.88 L88.00,71.75 L88.41,73.12 L87.24,72.30 L86.06,73.12 L86.48,71.75 L85.34,70.88 L86.77,70.85 Z"/><path d="M50.00,61.60 L50.80,63.90 L53.23,63.95 L51.29,65.42 L52.00,67.75 L50.00,66.36 L48.00,67.75 L48.71,65.42 L46.77,63.95 L49.20,63.90 Z"/><path d="M50.00,76.30 L50.63,78.13 L52.57,78.17 L51.03,79.33 L51.59,81.18 L50.00,80.08 L48.41,81.18 L48.97,79.33 L47.43,78.17 L49.37,78.13 Z"/><path d="M50.00,91.00 L50.47,92.35 L51.90,92.38 L50.76,93.25 L51.18,94.62 L50.00,93.80 L48.82,94.62 L49.24,93.25 L48.10,92.38 L49.53,92.35 Z"/><path d="M37.01,54.10 L37.81,56.40 L40.24,56.45 L38.30,57.92 L39.01,60.25 L37.01,58.86 L35.01,60.25 L35.72,57.92 L33.78,56.45 L36.21,56.40 Z"/><path d="M24.89,61.80 L25.52,63.63 L27.45,63.67 L25.91,64.83 L26.47,66.68 L24.89,65.58 L23.30,66.68 L23.86,64.83 L22.32,63.67 L24.25,63.63 Z"/><path d="M12.76,69.50 L13.23,70.85 L14.66,70.88 L13.52,71.75 L13.94,73.12 L12.76,72.30 L11.59,73.12 L12.00,71.75 L10.86,70.88 L12.29,70.85 Z"/><path d="M37.01,39.10 L37.81,41.40 L40.24,41.45 L38.30,42.92 L39.01,45.25 L37.01,43.86 L35.01,45.25 L35.72,42.92 L33.78,41.45 L36.21,41.40 Z"/><path d="M24.89,32.80 L25.52,34.63 L27.45,34.67 L25.91,35.83 L26.47,37.68 L24.89,36.58 L23.30,37.68 L23.86,35.83 L22.32,34.67 L24.25,34.63 Z"/><path d="M12.76,26.50 L13.23,27.85 L14.66,27.88 L13.52,28.75 L13.94,30.12 L12.76,29.30 L11.59,30.12 L12.00,28.75 L10.86,27.88 L12.29,27.85 Z"/><path d="M61.00,28.55 L61.56,30.17 L63.28,30.21 L61.91,31.24 L62.41,32.89 L61.00,31.91 L59.59,32.89 L60.09,31.24 L58.72,30.21 L60.44,30.17 Z"/><path d="M72.00,47.60 L72.56,49.22 L74.28,49.26 L72.91,50.30 L73.41,51.94 L72.00,50.96 L70.59,51.94 L71.09,50.30 L69.72,49.26 L71.44,49.22 Z"/><path d="M61.00,66.65 L61.56,68.28 L63.28,68.31 L61.91,69.35 L62.41,70.99 L61.00,70.01 L59.59,70.99 L60.09,69.35 L58.72,68.31 L60.44,68.28 Z"/><path d="M39.00,66.65 L39.56,68.28 L41.28,68.31 L39.91,69.35 L40.41,70.99 L39.00,70.01 L37.59,70.99 L38.09,69.35 L36.72,68.31 L38.44,68.28 Z"/><path d="M28.00,47.60 L28.56,49.22 L30.28,49.26 L28.91,50.30 L29.41,51.94 L28.00,50.96 L26.59,51.94 L27.09,50.30 L25.72,49.26 L27.44,49.22 Z"/><path d="M39.00,28.55 L39.56,30.17 L41.28,30.21 L39.91,31.24 L40.41,32.89 L39.00,31.91 L37.59,32.89 L38.09,31.24 L36.72,30.21 L38.44,30.17 Z"/></svg>
